<?xml version="1.0" encoding="utf-8"?>
<!-- Generator: Adobe Illustrator 26.3.1, SVG Export Plug-In . SVG Version: 6.00 Build 0)  -->
<svg version="1.1" id="Слой_1" xmlns="http://www.w3.org/2000/svg" xmlns:xlink="http://www.w3.org/1999/xlink" x="0px" y="0px"
	 viewBox="0 0 370 405" style="enable-background:new 0 0 370 405;" xml:space="preserve">
<style type="text/css">
	.st0{fill:#E58BAD;}
</style>
<path class="st0" d="M0,263.6c5.6,2.9,9.8,8.4,15.6,10.8c-3.3-6.6-9.9-11.1-12.3-18.3c9.2,3.8,15.3,13.6,24.6,18
	c-2.5-7-8.5-12.3-10.3-19.8c14.5,11.4,24.4,24,43.6,28.4c-5.9-5.5-27.6-28.7-10.2-26.7c-4.3-12.8-21-21.5,1.6-25.6
	c-13-13.2,7-5.9,16.8-7c-2-5.1-8.1-6.9-5-13.3c1.5-3.2,4.6-3.6,7.7-4.3c-8.3-7.9,3-6.1,10.1-6.5c1.6-0.1,2.2-2.4,3.9-3.5
	c8.8-6,18.1,2.7,27,4.5c-10.5-8,2.2-4,9.2-3.1c-1.9-1.6-7.4-6.1-1.6-4.8c8.2,1.8,16.3,4,24.3,6.3c10.3,2.9,25.2,0.5,34.2,5.2
	c40.7,21.5,70,48.3,100.2,82c1.1,1.3,1.9,0.6,1.1-0.8c-17.5-33.4-39.5-63.1-60.3-94.5c-21-31.8-29.8-65.8-16-103.1
	c7.2-19.5,19.5-33.6,41.1-37.7c12.3-2.3,0.3-37.7-1.4-45.9c-0.9-4.3,3-3.1,4.2,2c2.5,10.9,5.1,18,7.6,28.9c0.4,1.5,3,2.1,3.3,0
	c1.7-12.3,2-19.6,3.6-31.8c1.8-5.4,3.5-0.9,3.7,0.7c0.4,4.5-2.9,31.7,3,33.7c4.6,1.6,16.5-28.7,18.6-33.5c2.2-5.1,2.7-0.2,2.2,2.8
	c-2.1,12.7-7.3,20-9.3,32.7c-0.2,1.3,3.4,2.4,4,1.5c6.8-9.2,13.3-14.6,20.2-23.8c3.7-4.9,5.2-4.2,2.5,1.2
	c-4.7,9.6-28.8,38-19.5,48.4c8,8.9,12.7,24.4,12,36.4c-0.2,3.5-1.4,7.5-0.3,10.5c3,7.6,7,14.8,10.8,22c2.8,5.3,10.1,11.6,5,17.7
	c-7.9,9.4-33.9-28.4-37.9-32.6c-9.4-10-22.8-12-34.2-17.8c-8-4.1-12,8.5-12.8,14.6c-5.4,44.1,39.1,79,67.2,106.3
	c21.3,20.7,42.5,41.4,57.9,67.1c83.5,139.7-236,140.8-295.5,57.3C44,325,25.3,304.9,6.9,283.4c3.2,1.2,6.5,2.8,9.8,3.6
	C11.4,279.1,2.4,273.2,0,263.6z"/>
</svg>
